<svg xmlns="http://www.w3.org/2000/svg" viewBox="0 0 64 64" fill="none">
  <!-- Outer frame -->
  <rect x="4" y="4" width="56" height="56" rx="8" fill="#1e1e1e" stroke="#00FFA3" stroke-width="2"/>

  <!-- Grid of abstract image shapes -->
  <g transform="translate(10, 10)">
    <!-- Top left - large image -->
    <rect x="0" y="0" width="26" height="20" rx="3" fill="#282828" stroke="#00FFA3" stroke-width="1.5"/>
    <circle cx="8" cy="7" r="4" fill="#00FFA3" opacity="0.6"/>
    <path d="M2 17l6-8 4 4 8-10 6 14H2z" fill="#00FFA3" opacity="0.8"/>

    <!-- Top right - small image -->
    <rect x="30" y="0" width="14" height="14" rx="3" fill="#282828" stroke="#FF62A4" stroke-width="1.5"/>
    <circle cx="35" cy="5" r="2" fill="#FF62A4" opacity="0.6"/>
    <path d="M32 12l3-4 2 2 4-5v7H32z" fill="#FF62A4" opacity="0.8"/>

    <!-- Bottom left - small image -->
    <rect x="0" y="24" width="14" height="14" rx="3" fill="#282828" stroke="#FF62A4" stroke-width="1.5"/>
    <path d="M2 36l4-5 3 3 3-4v6H2z" fill="#FF62A4" opacity="0.8"/>

    <!-- Bottom middle - medium image -->
    <rect x="18" y="24" width="26" height="20" rx="3" fill="#282828" stroke="#00FFA3" stroke-width="1.5"/>
    <circle cx="25" cy="31" r="3" fill="#00FFA3" opacity="0.6"/>
    <path d="M20 41l5-7 4 4 7-9 6 12H20z" fill="#00FFA3" opacity="0.8"/>
  </g>
</svg>
