<svg xmlns="http://www.w3.org/2000/svg" viewBox="0 0 64 64" fill="none">
  <!-- Background circle -->
  <circle cx="32" cy="32" r="28" fill="#1e1e1e" stroke="#00FFA3" stroke-width="2"/>

  <!-- L letter -->
  <path d="M16 14v28h12v-6h-6V14h-6z" fill="#00FFA3"/>

  <!-- B letter -->
  <path d="M34 14v28h10c4.4 0 8-3.6 8-8 0-2.8-1.4-5.2-3.6-6.6 1.4-1.4 2.2-3.2 2.2-5.4 0-4.4-3.6-8-8-8H34zm6 6h4c1.1 0 2 .9 2 2s-.9 2-2 2h-4v-4zm0 10h4c1.1 0 2 .9 2 2s-.9 2-2 2h-4v-4z" fill="#FF62A4"/>

  <!-- Accent dot -->
  <circle cx="52" cy="12" r="4" fill="#00FFA3"/>
</svg>
